<?xml version="1.0" encoding="utf-8"?>
<!-- Generator: Adobe Illustrator 21.0.2, SVG Export Plug-In . SVG Version: 6.00 Build 0)  -->
<svg width="512px" height="512px" version="1.1" id="Layer_1" xmlns="http://www.w3.org/2000/svg" xmlns:xlink="http://www.w3.org/1999/xlink" x="0px" y="0px"
	 viewBox="0 0 512 512" style="enable-background:new 0 0 512 512;" xml:space="preserve">
<style type="text/css">
	.st0{fill:#ED1F6C;}
</style>
<path class="st0" d="M256,0C114.1624,0,0,114.6786,0,256s114.162,256,256,256c140.6848,0,256-114.6786,256-256
	C510.8464,114.679,396.6844,0,256,0z M256,485.3576c-126.8468,0-229.4773-103.0949-229.4773-229.3572S129.1532,26.6431,256,26.6431
	c125.6935,0,228.3241,103.0949,228.3241,229.3573C484.3241,382.2623,381.6935,485.3576,256,485.3576z M256,48.6517
	C141.838,48.6517,49.5858,141.3214,49.5858,256S141.838,463.3483,256,463.3483S462.4142,370.6786,462.4142,256
	S369.0088,48.6517,256,48.6517z M366.7031,381.64c-8.0719,6.95-19.6034,8.1084-27.6756-2.3169
	c-19.6037-24.3259-49.5858-39.3846-83.0271-39.3846c-33.4417,0-63.4234,15.0587-83.0271,39.3846
	c-8.0719,9.2672-19.6034,8.1087-27.6756,2.3169c-6.919-6.9503-13.838-11.5837-2.3064-27.8008
	C168.3603,319.088,209.8739,299.3956,256,299.3956c44.9729,0,87.6393,19.6924,113.0088,53.2851
	C380.5403,367.7394,373.6213,373.5312,366.7031,381.64z M119.9278,224.7242c-3.4593-3.475-3.4593-10.4253,0-13.9006l78.4142-74.1357
	c3.4593-3.475,10.3783-3.475,13.838,0l17.2973,18.534c3.4593,3.475,3.4593,10.4253,0,13.9006l-78.4142,75.2941
	c-3.4593,3.475-10.3783,3.475-13.838,0L119.9278,224.7242z M390.9186,224.7242l-17.2973,18.534
	c-3.4593,3.475-10.3783,4.6334-13.838,0l-78.4142-74.1357c-3.4593-3.475-4.6125-10.4253,0-13.9006l17.2973-18.534
	c3.4593-3.475,10.3783-4.6334,13.838,0l78.4142,74.1357C394.3783,214.2986,394.3783,221.2489,390.9186,224.7242z"/>
</svg>
